<svg width="87" height="22" viewBox="0 0 87 22" fill="none" xmlns="http://www.w3.org/2000/svg">
<path d="M0.944 1.884H5.156V9.012H13.337V1.884H17.549V21H13.337V12.738H5.156V21H0.944V1.884ZM32.3383 18.732C31.6903 19.56 30.8713 20.199 29.8813 20.649C28.8913 21.099 27.8653 21.324 26.8033 21.324C25.7953 21.324 24.8413 21.162 23.9413 20.838C23.0593 20.514 22.2853 20.055 21.6193 19.461C20.9713 18.849 20.4583 18.12 20.0803 17.274C19.7023 16.428 19.5133 15.483 19.5133 14.439C19.5133 13.395 19.7023 12.45 20.0803 11.604C20.4583 10.758 20.9713 10.038 21.6193 9.444C22.2853 8.832 23.0593 8.364 23.9413 8.04C24.8413 7.716 25.7953 7.554 26.8033 7.554C27.7393 7.554 28.5853 7.716 29.3413 8.04C30.1153 8.364 30.7633 8.832 31.2853 9.444C31.8253 10.038 32.2393 10.758 32.5273 11.604C32.8153 12.45 32.9593 13.395 32.9593 14.439V15.708H23.5633C23.7253 16.482 24.0763 17.103 24.6163 17.571C25.1563 18.021 25.8223 18.246 26.6143 18.246C27.2803 18.246 27.8383 18.102 28.2883 17.814C28.7563 17.508 29.1613 17.121 29.5033 16.653L32.3383 18.732ZM28.9093 12.954C28.9273 12.27 28.7023 11.685 28.2343 11.199C27.7663 10.713 27.1633 10.47 26.4253 10.47C25.9753 10.47 25.5793 10.542 25.2373 10.686C24.8953 10.83 24.5983 11.019 24.3463 11.253C24.1123 11.469 23.9233 11.73 23.7793 12.036C23.6533 12.324 23.5813 12.63 23.5633 12.954H28.9093ZM26.2633 1.884H31.7713L27.1003 5.772H23.5363L26.2633 1.884ZM34.4762 0.587999H38.5262V21H34.4762V0.587999ZM39.9499 14.439C39.9499 13.395 40.1389 12.45 40.5169 11.604C40.8949 10.758 41.4079 10.038 42.0559 9.444C42.7219 8.832 43.4959 8.364 44.3779 8.04C45.2779 7.716 46.2319 7.554 47.2399 7.554C48.2479 7.554 49.1929 7.716 50.0749 8.04C50.9749 8.364 51.7489 8.832 52.3969 9.444C53.0629 10.038 53.5849 10.758 53.9629 11.604C54.3409 12.45 54.5299 13.395 54.5299 14.439C54.5299 15.483 54.3409 16.428 53.9629 17.274C53.5849 18.12 53.0629 18.849 52.3969 19.461C51.7489 20.055 50.9749 20.514 50.0749 20.838C49.1929 21.162 48.2479 21.324 47.2399 21.324C46.2319 21.324 45.2779 21.162 44.3779 20.838C43.4959 20.514 42.7219 20.055 42.0559 19.461C41.4079 18.849 40.8949 18.12 40.5169 17.274C40.1389 16.428 39.9499 15.483 39.9499 14.439ZM43.9999 14.439C43.9999 15.429 44.2789 16.23 44.8369 16.842C45.4129 17.454 46.2139 17.76 47.2399 17.76C48.2659 17.76 49.0579 17.454 49.6159 16.842C50.1919 16.23 50.4799 15.429 50.4799 14.439C50.4799 13.449 50.1919 12.648 49.6159 12.036C49.0579 11.424 48.2659 11.118 47.2399 11.118C46.2139 11.118 45.4129 11.424 44.8369 12.036C44.2789 12.648 43.9999 13.449 43.9999 14.439ZM55.9694 7.878H60.0194V21H55.9694V7.878ZM55.1594 5.934C54.8354 5.934 54.5384 5.871 54.2684 5.745C53.9984 5.619 53.7644 5.448 53.5664 5.232C53.3684 5.016 53.2154 4.773 53.1074 4.503C52.9814 4.215 52.9184 3.918 52.9184 3.612C52.9184 3.324 52.9814 3.045 53.1074 2.775C53.2154 2.505 53.3684 2.271 53.5664 2.073C53.7644 1.875 53.9984 1.713 54.2684 1.587C54.5204 1.461 54.7994 1.398 55.1054 1.398C55.7354 1.398 56.2844 1.605 56.7524 2.019C57.2204 2.433 57.4544 2.964 57.4544 3.612C57.4544 4.26 57.2384 4.809 56.8064 5.259C56.3744 5.709 55.8254 5.934 55.1594 5.934ZM60.7754 5.934C60.4514 5.934 60.1544 5.871 59.8844 5.745C59.6144 5.619 59.3804 5.448 59.1824 5.232C58.9844 5.016 58.8224 4.773 58.6964 4.503C58.5884 4.215 58.5344 3.918 58.5344 3.612C58.5344 3.324 58.5884 3.045 58.6964 2.775C58.8224 2.505 58.9844 2.271 59.1824 2.073C59.3804 1.875 59.6054 1.713 59.8574 1.587C60.1274 1.461 60.4154 1.398 60.7214 1.398C61.3514 1.398 61.9004 1.605 62.3684 2.019C62.8364 2.433 63.0704 2.964 63.0704 3.612C63.0704 4.26 62.8544 4.809 62.4224 5.259C61.9904 5.709 61.4414 5.934 60.7754 5.934ZM69.354 11.739C68.76 11.001 67.977 10.632 67.005 10.632C66.663 10.632 66.33 10.713 66.006 10.875C65.682 11.037 65.52 11.316 65.52 11.712C65.52 12.036 65.682 12.279 66.006 12.441C66.348 12.585 66.771 12.72 67.275 12.846C67.797 12.954 68.346 13.08 68.922 13.224C69.516 13.35 70.065 13.557 70.569 13.845C71.091 14.133 71.514 14.529 71.838 15.033C72.18 15.519 72.351 16.176 72.351 17.004C72.351 17.85 72.162 18.552 71.784 19.11C71.424 19.65 70.956 20.091 70.38 20.433C69.804 20.757 69.156 20.982 68.436 21.108C67.716 21.252 67.005 21.324 66.303 21.324C65.385 21.324 64.458 21.198 63.522 20.946C62.586 20.676 61.794 20.208 61.146 19.542L63.603 16.815C63.981 17.283 64.395 17.643 64.845 17.895C65.313 18.129 65.853 18.246 66.465 18.246C66.933 18.246 67.356 18.183 67.734 18.057C68.112 17.913 68.301 17.661 68.301 17.301C68.301 16.959 68.13 16.707 67.788 16.545C67.464 16.365 67.041 16.221 66.519 16.113C66.015 15.987 65.466 15.861 64.872 15.735C64.296 15.591 63.747 15.384 63.225 15.114C62.721 14.844 62.298 14.466 61.956 13.98C61.632 13.476 61.47 12.81 61.47 11.982C61.47 11.208 61.623 10.542 61.929 9.984C62.253 9.426 62.667 8.967 63.171 8.607C63.693 8.247 64.287 7.986 64.953 7.824C65.619 7.644 66.294 7.554 66.978 7.554C67.842 7.554 68.715 7.68 69.597 7.932C70.479 8.184 71.226 8.634 71.838 9.282L69.354 11.739ZM85.8471 18.732C85.1991 19.56 84.3801 20.199 83.3901 20.649C82.4001 21.099 81.3741 21.324 80.3121 21.324C79.3041 21.324 78.3501 21.162 77.4501 20.838C76.5681 20.514 75.7941 20.055 75.1281 19.461C74.4801 18.849 73.9671 18.12 73.5891 17.274C73.2111 16.428 73.0221 15.483 73.0221 14.439C73.0221 13.395 73.2111 12.45 73.5891 11.604C73.9671 10.758 74.4801 10.038 75.1281 9.444C75.7941 8.832 76.5681 8.364 77.4501 8.04C78.3501 7.716 79.3041 7.554 80.3121 7.554C81.2481 7.554 82.0941 7.716 82.8501 8.04C83.6241 8.364 84.2721 8.832 84.7941 9.444C85.3341 10.038 85.7481 10.758 86.0361 11.604C86.3241 12.45 86.4681 13.395 86.4681 14.439V15.708H77.0721C77.2341 16.482 77.5851 17.103 78.1251 17.571C78.6651 18.021 79.3311 18.246 80.1231 18.246C80.7891 18.246 81.3471 18.102 81.7971 17.814C82.2651 17.508 82.6701 17.121 83.0121 16.653L85.8471 18.732ZM82.4181 12.954C82.4361 12.27 82.2111 11.685 81.7431 11.199C81.2751 10.713 80.6721 10.47 79.9341 10.47C79.4841 10.47 79.0881 10.542 78.7461 10.686C78.4041 10.83 78.1071 11.019 77.8551 11.253C77.6211 11.469 77.4321 11.73 77.2881 12.036C77.1621 12.324 77.0901 12.63 77.0721 12.954H82.4181Z" fill="#323232"/>
</svg>
